<svg width="35" height="38" viewBox="0 0 35 38" fill="none" xmlns="http://www.w3.org/2000/svg">
<path d="M12.9999 31.6667C4.66659 34.1667 4.66659 27.5 1.33325 26.6667M24.6666 36.6667V30.2167C24.7291 29.4219 24.6217 28.623 24.3516 27.873C24.0815 27.123 23.6548 26.439 23.0999 25.8667C28.3333 25.2833 33.8333 23.3 33.8333 14.2C33.8328 11.873 32.9377 9.63533 31.3333 7.95C32.093 5.91417 32.0393 3.66391 31.1833 1.66666C31.1833 1.66666 29.2166 1.08333 24.6666 4.13333C20.8466 3.09803 16.8199 3.09803 12.9999 4.13333C8.44992 1.08333 6.48325 1.66666 6.48325 1.66666C5.62721 3.66391 5.57349 5.91417 6.33325 7.95C4.7168 9.64783 3.82079 11.9058 3.83325 14.25C3.83325 23.2833 9.33325 25.2667 14.5666 25.9167C14.0182 26.4833 13.5954 27.159 13.3254 27.8999C13.0555 28.6407 12.9446 29.4301 12.9999 30.2167V36.6667" stroke="#A9A9A9" stroke-width="2" stroke-linecap="round" stroke-linejoin="round"/>
</svg>
