<svg width="36" height="34" viewBox="0 0 36 34" fill="none" xmlns="http://www.w3.org/2000/svg">
<path d="M24.6666 11.3333C27.3188 11.3333 29.8623 12.3869 31.7377 14.2623C33.613 16.1376 34.6666 18.6812 34.6666 21.3333V33H27.9999V21.3333C27.9999 20.4493 27.6487 19.6014 27.0236 18.9763C26.3985 18.3512 25.5506 18 24.6666 18C23.7825 18 22.9347 18.3512 22.3096 18.9763C21.6844 19.6014 21.3333 20.4493 21.3333 21.3333V33H14.6666V21.3333C14.6666 18.6812 15.7202 16.1376 17.5955 14.2623C19.4709 12.3869 22.0144 11.3333 24.6666 11.3333Z" stroke="#A9A9A9" stroke-width="2" stroke-linecap="round" stroke-linejoin="round"/>
<path d="M7.99992 13H1.33325V33H7.99992V13Z" stroke="#A9A9A9" stroke-width="2" stroke-linecap="round" stroke-linejoin="round"/>
<path d="M4.66659 7.99999C6.50753 7.99999 7.99992 6.50761 7.99992 4.66666C7.99992 2.82571 6.50753 1.33333 4.66659 1.33333C2.82564 1.33333 1.33325 2.82571 1.33325 4.66666C1.33325 6.50761 2.82564 7.99999 4.66659 7.99999Z" stroke="#A9A9A9" stroke-width="2" stroke-linecap="round" stroke-linejoin="round"/>
</svg>
